<?xml version="1.0" standalone="no"?>
<!DOCTYPE svg PUBLIC "-//W3C//DTD SVG 1.1//EN" "http://www.w3.org/Graphics/SVG/1.1/DTD/svg11.dtd" >
<svg xmlns="http://www.w3.org/2000/svg">
<metadata>Generated by IcoMoon</metadata>
<defs>
<font id="icomoon" horiz-adv-x="1024">
<font-face units-per-em="1024" ascent="960" descent="-64" />
<missing-glyph horiz-adv-x="1024" />
<glyph unicode="&#x20;" horiz-adv-x="512" d="" />
<glyph unicode="&#xe901;" glyph-name="download" horiz-adv-x="1210" d="M851.713 959.995l-6.34-0.040c-94.863-1.315-182.090-42.942-243.911-114.164-62.886 68.686-150.302 108.152-246.275 108.152h-0.098c-85.145-0.329-165.935-35.521-227.481-99.133-67.608-69.813-105.552-168.469-104.304-270.651 0.418-38.477 6.387-75.923 16.522-106.93 21.146-94.149 132.066-217.845 349.141-389.463 56.546-44.352 141.97-104.677 178.48-130.423l15.269-10.805c1.992-1.549 4.072-2.961 6.247-4.183 7.403-4.134 15.643-6.199 23.786-6.199v0c9.164 0 18.369 2.63 26.328 7.799 48.635 31.288 114.069 81.369 194.494 148.645 209.161 173.923 319.85 304.433 337.481 394.636 10.366 35.751 15.453 73.291 14.992 111.672-2.546 199.104-152.474 361.091-334.332 361.091l0.002-0.005zM851.673 860.121c128.272 0 234.099-117.683 235.904-262.384 0.369-28.375-3.331-55.999-12.031-86.49-7.775-39.417-57.66-136.101-304.582-341.453-61.913-51.866-115.684-93.867-157.515-123.229-39.842 28.14-114.347 81.038-164.138 120.127-252.706 199.665-304.853 294.148-314.71 337.040-8.191 25.745-12.541 53.23-12.913 81.652-0.971 75.78 26.792 148.455 76.12 199.382 43.036 44.442 98.983 69.063 160.807 69.297v0c82.368 0 157.794-44.208 201.803-118.155 9.022-15.223 26.375-24.109 42.755-24.148 17.539 0.281 33.502 9.863 42.111 25.273 42.525 75.919 117.815 121.916 201.524 123.043 0 0 4.672 0.040 4.865 0.040v0.005zM848.106 785.142c-13.559 0-24.476-11.182-24.476-24.995 0-13.811 11.012-24.989 24.57-24.989 64.368 0 115.504-61.029 116.428-139.065 0.279-15.597-1.804-30.867-6.062-45.619l-3.518-14.422c-2.732-13.482 5.785-26.732 19.067-29.551 1.712-0.38 3.426-0.516 5.044-0.516 11.428 0 21.606 8.078 24.013 19.916l2.637 10.715c5.6 19.356 8.33 39.606 7.961 60.136-1.25 105.659-74.041 188.389-165.665 188.389v0z" />
<glyph unicode="&#xe903;" glyph-name="group-6" d="M597.333 448c0-47.128-38.205-85.333-85.333-85.333s-85.333 38.205-85.333 85.333c0 47.128 38.205 85.333 85.333 85.333s85.333-38.205 85.333-85.333z" />
<glyph unicode="&#xe906;" glyph-name="ico-all-category" horiz-adv-x="1210" d="M271.515 503.596c0-72.121-58.465-130.586-130.586-130.586s-130.586 58.465-130.586 130.586c0 72.121 58.465 130.586 130.586 130.586s130.586-58.465 130.586-130.586zM271.515 84.687c0-72.121-58.465-130.586-130.586-130.586s-130.586 58.465-130.586 130.586c0 72.121 58.465 130.586 130.586 130.586s130.586-58.465 130.586-130.586z" />
<glyph unicode="&#xe908;" glyph-name="ico-basket" d="M1005.198 784.107c-4.848 6.129-12.128 9.694-19.823 9.706h-781.65l-23.659 144.28c-2.083 12.777-12.948 22.082-25.578 21.904h-128.911c-14.126 0-25.578-11.745-25.578-26.233s11.451-26.233 25.578-26.233h107.682l97.962-595.485c12.61-78.859 79.13-136.694 157.046-136.542h515.644c14.126 0 25.578 11.745 25.578 26.233s-11.451 26.233-25.578 26.233h-515.644c-42.344-0.084-80.815 25.263-98.346 64.795l497.484 43.94c81.498 7.026 148.833 68.088 165.615 150.183l56.782 275.444c1.696 7.599 0.009 15.578-4.604 21.773v0zM903.527 498.169c-12.064-59.805-61.121-104.297-120.47-109.26l-505.285-44.596-65.351 397.033h741.749l-50.644-243.178zM353.226 145.862c-56.504 0-102.31-46.979-102.31-104.931s45.806-104.931 102.31-104.931c56.504 0 102.31 46.979 102.31 104.931s-45.806 104.931-102.31 104.931zM353.226-11.534c-28.252 0-51.155 23.49-51.155 52.466s22.903 52.466 51.155 52.466c28.252 0 51.155-23.49 51.155-52.466s-22.903-52.466-51.155-52.466zM834.724 145.862c-56.504 0-102.31-46.979-102.31-104.931s45.806-104.931 102.31-104.931c56.504 0 102.31 46.979 102.31 104.931s-45.806 104.931-102.31 104.931zM834.724-11.534c-28.252 0-51.155 23.49-51.155 52.466s22.903 52.466 51.155 52.466c28.252 0 51.155-23.49 51.155-52.466s-22.903-52.466-51.155-52.466z" />
<glyph unicode="&#xe90a;" glyph-name="ico-close-copy" horiz-adv-x="1071" d="M1065.374 448c0-282.77-229.23-512-512-512s-512 229.23-512 512c0 282.77 229.23 512 512 512s512-229.23 512-512z" />
<glyph unicode="&#xe90b;" glyph-name="ico-close" horiz-adv-x="1071" d="M1060.202 448c0-282.77-229.23-512-512-512s-512 229.23-512 512c0 282.77 229.23 512 512 512s512-229.23 512-512z" />
<glyph unicode="&#xe90c;" glyph-name="ico-delete-solid" horiz-adv-x="1069" d="M1061.101 448c0-282.77-229.23-512-512-512s-512 229.23-512 512c0 282.77 229.23 512 512 512s512-229.23 512-512z" />
<glyph unicode="&#xe910;" glyph-name="ico-fast-cargo" horiz-adv-x="1749" d="M176.592 507.323v60.287c0 88.964 70.56 161.333 157.3 161.333h189.52c22.080 0 40-18.379 40-41.026v-495.856h55.313v589.087c0 88.944 70.56 161.292 157.28 161.292h510.48c86.72 0 157.28-72.349 157.28-161.292v-59.754h42.5c22.080 0 40-18.379 40-41.026s-17.92-41.026-40-41.026h-366.84c-22.080 0-40 18.379-40 41.026s17.92 41.026 40 41.026h244.34v59.754c0 43.692-34.66 79.241-77.28 79.241h-510.46c-42.62 0-77.28-35.549-77.28-79.241v-589.087h211.58c18.48 89.292 95.86 156.492 188.32 156.492 92.48 0 169.88-67.2 188.36-156.492h76.76v146.256h-24.24c-22.080 0-40 18.379-40 41.026s17.92 41.026 40 41.026h64.14c0.14 0.021 302.76 0 302.76 0 22.080 0 40-18.379 40-41.026s-17.92-41.026-40-41.026h-262.66v-187.282c0-22.646-17.92-41.026-40-41.026h-116.76c-18.48-89.272-95.88-156.472-188.36-156.472-92.46 0-169.84 67.2-188.32 156.472h-351.133c-18.48-89.272-95.9-156.472-188.36-156.472s-169.84 67.2-188.32 156.472h-115.88c-22.080 0-40 18.379-40 41.026v195.159c-0.020 86.421 66.6 157.169 149.96 161.128zM1098.645 35.59c62.080 0 112.6 51.795 112.6 115.446 0 63.672-50.5 115.467-112.6 115.467-62.080 0-112.56-51.774-112.56-115.467 0-63.631 50.5-115.446 112.56-115.446zM370.812 35.59c62.080 0 112.6 51.795 112.6 115.446 0 63.672-50.5 115.467-112.6 115.467-62.080 0-112.56-51.774-112.56-115.467 0-63.631 50.5-115.446 112.56-115.446zM106.612 192.062h75.88c18.48 89.292 95.86 156.492 188.32 156.492 42.060 0 80.88-14.051 112.6-37.6v335.938h-149.52c-42.62 0-77.3-35.569-77.3-79.282v-101.149c0-22.646-17.92-41.026-40-41.026h-32.66c-42.64 0-77.32-35.549-77.32-79.241v-154.133zM1596.345 488.841h-366.86c-22.080 0-40 18.379-40 41.026s17.92 41.026 40 41.026h366.86c22.080 0 40-18.379 40-41.026s-17.92-41.026-40-41.026z" />
<glyph unicode="&#xe911;" glyph-name="ico-free-shipping" d="M970.529 729.416c0 0.089 42.667 0.191 42.641 0.268-0.317 1.645-0.912 3.187-1.633 4.64-1.368 2.46-2.254 3.761-3.368 4.895-0.051 0.064-187.337 189.912-187.337 189.912-3.583 3.608-8.433 5.635-13.473 5.635h-566.362c-5.128 0-10.041-2.091-13.625-5.8l-183.108-189.695c-1.266-1.441-2.127-2.677-2.874-4.003-1.266-2.499-1.823-4.028-2.127-5.66-0.228-1.606-0.367-2.601-0.367-3.646v-747.103c0-10.556 8.509-19.123 18.993-19.123h936.656c10.484 0 18.993 8.567 18.993 19.123v747.103c0 1.186-42.781 2.32-43.009 3.455zM565.718 876.873h222.704l142.936-144.823h-365.641v144.823zM260.22 876.873h226.506v-144.823h-366.294l139.788 144.823zM95.611 17.64v635.173h861.211v-635.173h-861.211z" />
<glyph unicode="&#xe912;" glyph-name="ico-gift" d="M376.309 949.155c-90.376 0-164.346-73.219-164.346-162.678 0-36.559 12.432-70.361 33.211-97.607h-197.557c-17.21-0.002-32.867-15.501-32.869-32.536v-195.214c0.002-17.035 15.659-32.533 32.869-32.536h32.869v-444.653c0.002-17.035 15.659-32.533 32.869-32.536h788.859c17.21 0.002 32.867 15.501 32.869 32.536v444.653h32.869c17.21 0.002 32.867 15.501 32.869 32.536v195.214c-0.002 17.035-15.659 32.534-32.869 32.536h-197.557c20.779 27.246 33.211 61.048 33.211 97.607 0 89.459-73.97 162.678-164.346 162.678-53.612 0-101.428-26.112-131.477-65.749-30.049 39.637-77.865 65.749-131.477 65.749zM376.309 884.083c54.847 0 98.607-43.315 98.607-97.607v-97.607h-98.607c-54.848 0-98.607 43.316-98.607 97.607 0 54.292 43.759 97.607 98.607 97.607zM639.263 884.083c54.849 0 98.607-43.315 98.607-97.607s-43.76-97.607-98.607-97.607h-98.607v97.607c0 54.292 43.759 97.607 98.607 97.607zM80.487 623.799h394.43v-130.142h-394.43v130.142zM540.655 623.799h394.43v-130.142h-394.43v130.142zM146.226 428.585h328.691v-412.118h-328.691v412.118zM540.655 428.585h328.691v-412.118h-328.691v412.118z" />
<glyph unicode="&#xe914;" glyph-name="ico-list-item" horiz-adv-x="1350" d="M468.779 913.455h837.818c12.853 0 23.273-10.42 23.273-23.273s-10.42-23.273-23.273-23.273h-837.818c-12.853 0-23.273 10.42-23.273 23.273s10.42 23.273 23.273 23.273zM468.779 820.364h465.455c12.853 0 23.273-10.42 23.273-23.273s-10.42-23.273-23.273-23.273h-465.455c-12.853 0-23.273 10.42-23.273 23.273s10.42 23.273 23.273 23.273zM468.779 541.091h837.818c12.853 0 23.273-10.42 23.273-23.273s-10.42-23.273-23.273-23.273h-837.818c-12.853 0-23.273 10.42-23.273 23.273s10.42 23.273 23.273 23.273zM468.779 448h465.455c12.853 0 23.273-10.42 23.273-23.273s-10.42-23.273-23.273-23.273h-465.455c-12.853 0-23.273 10.42-23.273 23.273s10.42 23.273 23.273 23.273zM468.779 168.727h837.818c12.853 0 23.273-10.42 23.273-23.273s-10.42-23.273-23.273-23.273h-837.818c-12.853 0-23.273 10.42-23.273 23.273s10.42 23.273 23.273 23.273zM468.779 75.636h465.455c12.853 0 23.273-10.42 23.273-23.273s-10.42-23.273-23.273-23.273h-465.455c-12.853 0-23.273 10.42-23.273 23.273s10.42 23.273 23.273 23.273z" />
<glyph unicode="&#xe919;" horiz-adv-x="1071" d="M1067.96 448c0-282.77-229.23-512-512-512s-512 229.23-512 512c0 282.77 229.23 512 512 512s512-229.23 512-512z" />
<glyph unicode="&#xe91a;" horiz-adv-x="1071" d="M183.596 447.693c0 0 129.988 186.489 370.706 186.489s372.128-184.988 372.128-184.988c0 0-111.83-187.904-373.114-187.904s-369.72 186.403-369.72 186.403z" />
<glyph unicode="&#xe91b;" horiz-adv-x="1071" d="M649.050 448c0-51.413-41.678-93.091-93.091-93.091s-93.091 41.678-93.091 93.091c0 51.413 41.678 93.091 93.091 93.091s93.091-41.678 93.091-93.091z" />
<glyph unicode="&#xe91c;" horiz-adv-x="1071" d="M1055.030 448c0-282.77-229.23-512-512-512s-512 229.23-512 512c0 282.77 229.23 512 512 512s512-229.23 512-512z" />
<glyph unicode="&#xe91d;" horiz-adv-x="1071" d="M512.813 437.797c0 0 9.838 0 21.218 0 80.953 0 162.483 65.626 162.483 146.579s-65.626 146.579-146.579 146.579c-80.953 0-146.579-65.626-146.579-146.579" />
<glyph unicode="&#xe91e;" horiz-adv-x="1071" d="M496.485 436.613v-121.639" />
<glyph unicode="&#xe91f;" horiz-adv-x="1071" d="M549.051 168.328c0-26.841-21.759-48.6-48.6-48.6s-48.6 21.759-48.6 48.6c0 26.841 21.759 48.6 48.6 48.6s48.6-21.759 48.6-48.6z" />
<glyph unicode="&#xe920;" glyph-name="ico-question-radius" horiz-adv-x="1071" d="M546.465 168.328c0-26.841-21.759-48.6-48.6-48.6s-48.6 21.759-48.6 48.6c0 26.841 21.759 48.6 48.6 48.6s48.6-21.759 48.6-48.6z" />
<glyph unicode="&#xe921;" glyph-name="ico-search" horiz-adv-x="1061" d="M1015.792-5.973l-349.867 349.867c54.613 64.853 87.040 150.187 87.040 240.64 0 206.507-168.96 375.467-375.467 375.467s-375.467-168.96-375.467-375.467c0-206.507 168.96-375.467 375.467-375.467 90.453 0 175.787 32.427 240.64 87.040l349.867-349.867c13.653-13.653 34.133-13.653 47.787 0s13.653 34.133 0 47.787zM377.498 256c-180.693 0-328.533 147.84-328.533 328.533s147.84 328.533 328.533 328.533c180.693 0 328.533-147.84 328.533-328.533s-147.84-328.533-328.533-328.533zM491.845 775.68c-3.413-6.827-8.533-10.24-15.36-10.24-3.413 0-5.12 0-6.827 1.707-8.533 5.12-17.067 8.533-27.307 11.947-8.533 3.413-13.653 11.947-10.24 22.187 3.413 8.533 11.947 13.653 22.187 10.24s20.48-8.533 30.72-13.653c8.533-3.413 11.947-13.653 6.827-22.187zM394.565 806.4c0-10.24-6.827-17.067-17.067-17.067-112.64 0-204.8-92.16-204.8-204.8 0-10.24-6.827-17.067-17.067-17.067s-17.067 6.827-17.067 17.067c0 131.413 107.52 238.933 238.933 238.933 10.24 0 17.067-6.827 17.067-17.067z" />
<glyph unicode="&#xe926;" horiz-adv-x="1071" d="M1057.616 448c0-282.77-229.23-512-512-512s-512 229.23-512 512c0 282.77 229.23 512 512 512s512-229.23 512-512z" />
<glyph unicode="&#xe927;" horiz-adv-x="1071" d="M545.616 724.87v-407.794" />
<glyph unicode="&#xe928;" horiz-adv-x="1071" d="M596.27 166.673c0-26.841-21.759-48.6-48.6-48.6s-48.6 21.759-48.6 48.6c0 26.841 21.759 48.6 48.6 48.6s48.6-21.759 48.6-48.6z" />
<glyph unicode="&#xe92b;" horiz-adv-x="1152" d="M821.157 959.995l-6.284-0.039c-94.029-1.303-180.489-42.565-241.767-113.16-62.334 68.082-148.981 107.201-244.11 107.201h-0.097c-84.396-0.326-164.476-35.209-225.481-98.261-67.013-69.2-104.625-166.988-103.387-268.271 0.414-38.138 6.331-75.256 16.377-105.99 20.96-93.322 130.905-215.93 346.072-386.039 56.049-43.962 140.722-103.757 176.911-129.276l15.134-10.71c1.974-1.535 4.036-2.935 6.192-4.146 7.338-4.098 15.506-6.144 23.577-6.144v0c9.083 0 18.207 2.607 26.097 7.73 48.208 31.013 113.066 80.654 192.784 147.339 207.322 172.394 317.038 301.757 334.514 391.166 10.275 35.437 15.317 72.646 14.86 110.69-2.524 197.354-151.133 357.917-331.392 357.917l0.002-0.005z" />
<glyph unicode="&#xe92c;" horiz-adv-x="1152" d="M817.582 786.679c-13.44 0-24.26-11.084-24.26-24.776 0-13.69 10.916-24.77 24.354-24.77 63.802 0 114.489-60.492 115.405-137.842 0.276-15.46-1.788-30.596-6.008-45.218l-3.487-14.295c-2.707-13.364 5.734-26.497 18.899-29.291 1.697-0.376 3.396-0.511 5-0.511 11.328 0 21.416 8.007 23.802 19.741l2.614 10.621c5.551 19.186 8.257 39.258 7.891 59.607-1.239 104.73-73.39 186.733-164.209 186.733v0z" />
</font>
</defs>
</svg>
